<svg width="257" height="74" viewBox="0 0 257 74" fill="none" xmlns="http://www.w3.org/2000/svg">
<rect width="257" height="74" rx="20" fill="#796DFF"/>
<path d="M30.84 43.17V32.43H26.52C26.44 33.9433 26.33 35.28 26.19 36.44C26.05 37.5933 25.8833 38.6033 25.69 39.47C25.5033 40.33 25.2933 41.0633 25.06 41.67C24.8333 42.27 24.5867 42.77 24.32 43.17H30.84ZM35.48 43.17V47.78C35.48 47.98 35.41 48.1433 35.27 48.27C35.1367 48.3967 34.96 48.46 34.74 48.46H33.34V45H22.28V47.78C22.28 47.98 22.21 48.1433 22.07 48.27C21.9367 48.3967 21.76 48.46 21.54 48.46H20.14V43.17H21.66C21.8533 43.07 22.0467 42.91 22.24 42.69C22.44 42.47 22.63 42.1567 22.81 41.75C22.99 41.3433 23.16 40.83 23.32 40.21C23.4867 39.59 23.6367 38.8333 23.77 37.94C23.9033 37.04 24.0167 35.9867 24.11 34.78C24.2033 33.5733 24.2733 32.18 24.32 30.6H33.19V43.17H35.48ZM41.1302 34.64C41.8835 34.64 42.5635 34.7633 43.1702 35.01C43.7835 35.2567 44.3035 35.6067 44.7302 36.06C45.1635 36.5133 45.4968 37.0633 45.7302 37.71C45.9635 38.3567 46.0802 39.0833 46.0802 39.89C46.0802 40.6967 45.9635 41.4233 45.7302 42.07C45.4968 42.7167 45.1635 43.27 44.7302 43.73C44.3035 44.1833 43.7835 44.5333 43.1702 44.78C42.5635 45.0267 41.8835 45.15 41.1302 45.15C40.3702 45.15 39.6835 45.0267 39.0702 44.78C38.4635 44.5333 37.9435 44.1833 37.5102 43.73C37.0768 43.27 36.7435 42.7167 36.5102 42.07C36.2768 41.4233 36.1602 40.6967 36.1602 39.89C36.1602 39.0833 36.2768 38.3567 36.5102 37.71C36.7435 37.0633 37.0768 36.5133 37.5102 36.06C37.9435 35.6067 38.4635 35.2567 39.0702 35.01C39.6835 34.7633 40.3702 34.64 41.1302 34.64ZM41.1302 43.47C42.0502 43.47 42.7335 43.1633 43.1802 42.55C43.6335 41.93 43.8602 41.0467 43.8602 39.9C43.8602 38.7533 43.6335 37.87 43.1802 37.25C42.7335 36.6233 42.0502 36.31 41.1302 36.31C40.1968 36.31 39.5035 36.6233 39.0502 37.25C38.5968 37.87 38.3702 38.7533 38.3702 39.9C38.3702 41.0467 38.5968 41.93 39.0502 42.55C39.5035 43.1633 40.1968 43.47 41.1302 43.47ZM52.8459 43.56C53.7726 43.56 54.4659 43.27 54.9259 42.69C55.3859 42.1033 55.6159 41.26 55.6159 40.16C55.6159 39.0733 55.3926 38.2367 54.9459 37.65C54.4993 37.0567 53.8226 36.76 52.9159 36.76C52.0226 36.76 51.3293 37.0333 50.8359 37.58C50.3493 38.1267 50.1059 38.9267 50.1059 39.98C50.1059 41.1267 50.3326 42.01 50.7859 42.63C51.2459 43.25 51.9326 43.56 52.8459 43.56ZM53.5559 32.71C52.9093 32.7567 52.3526 32.89 51.8859 33.11C51.4259 33.33 51.0426 33.6267 50.7359 34C50.4359 34.3733 50.2059 34.82 50.0459 35.34C49.8926 35.86 49.8026 36.44 49.7759 37.08C50.1093 36.5 50.5926 36.0367 51.2259 35.69C51.8593 35.3433 52.5993 35.17 53.4459 35.17C54.1259 35.17 54.7359 35.29 55.2759 35.53C55.8159 35.77 56.2726 36.1067 56.6459 36.54C57.0259 36.9733 57.3159 37.4967 57.5159 38.11C57.7226 38.7233 57.8259 39.4033 57.8259 40.15C57.8259 40.91 57.7059 41.6 57.4659 42.22C57.2326 42.8333 56.8993 43.36 56.4659 43.8C56.0326 44.2333 55.5093 44.5667 54.8959 44.8C54.2826 45.0333 53.5993 45.15 52.8459 45.15C52.1326 45.15 51.4726 45.0333 50.8659 44.8C50.2593 44.56 49.7326 44.1767 49.2859 43.65C48.8393 43.1167 48.4893 42.42 48.2359 41.56C47.9893 40.7 47.8659 39.6467 47.8659 38.4C47.8659 37.3467 47.9626 36.3733 48.1559 35.48C48.3493 34.5867 48.6626 33.8067 49.0959 33.14C49.5293 32.4667 50.0959 31.9267 50.7959 31.52C51.5026 31.1067 52.3626 30.86 53.3759 30.78L57.0059 30.48L57.1259 31.6C57.1526 31.8467 57.1159 32.0533 57.0159 32.22C56.9226 32.3867 56.7559 32.4767 56.5159 32.49L53.5559 32.71ZM65.3538 40.54C64.5871 40.5667 63.9404 40.63 63.4138 40.73C62.8871 40.8233 62.4604 40.9467 62.1338 41.1C61.8071 41.2467 61.5704 41.4233 61.4238 41.63C61.2838 41.8367 61.2138 42.0633 61.2138 42.31C61.2138 42.55 61.2504 42.7567 61.3238 42.93C61.4038 43.0967 61.5104 43.2367 61.6438 43.35C61.7838 43.4567 61.9438 43.5367 62.1238 43.59C62.3104 43.6367 62.5138 43.66 62.7338 43.66C63.2938 43.66 63.7738 43.5567 64.1738 43.35C64.5804 43.1367 64.9738 42.83 65.3538 42.43V40.54ZM59.6538 36.22C60.8071 35.1467 62.1804 34.61 63.7738 34.61C64.3604 34.61 64.8804 34.7067 65.3338 34.9C65.7938 35.0867 66.1771 35.3533 66.4838 35.7C66.7971 36.0467 67.0338 36.46 67.1938 36.94C67.3604 37.4133 67.4438 37.94 67.4438 38.52V45H66.4838C66.2771 45 66.1204 44.97 66.0138 44.91C65.9071 44.8433 65.8171 44.7133 65.7438 44.52L65.5338 43.69C65.2738 43.9233 65.0171 44.1333 64.7638 44.32C64.5104 44.5 64.2471 44.6533 63.9738 44.78C63.7071 44.9067 63.4171 45 63.1038 45.06C62.7971 45.1267 62.4571 45.16 62.0838 45.16C61.6704 45.16 61.2838 45.1033 60.9238 44.99C60.5704 44.8767 60.2638 44.7067 60.0038 44.48C59.7438 44.2467 59.5371 43.96 59.3838 43.62C59.2371 43.28 59.1638 42.88 59.1638 42.42C59.1638 42.0267 59.2671 41.6433 59.4738 41.27C59.6871 40.8967 60.0338 40.5633 60.5138 40.27C61.0004 39.97 61.6371 39.7233 62.4238 39.53C63.2171 39.3367 64.1938 39.2267 65.3538 39.2V38.52C65.3538 37.7867 65.1971 37.24 64.8838 36.88C64.5704 36.52 64.1104 36.34 63.5038 36.34C63.0904 36.34 62.7438 36.3933 62.4638 36.5C62.1838 36.6 61.9404 36.71 61.7338 36.83C61.5271 36.95 61.3438 37.0633 61.1838 37.17C61.0238 37.27 60.8538 37.32 60.6738 37.32C60.5271 37.32 60.4004 37.2833 60.2938 37.21C60.1938 37.13 60.1104 37.0333 60.0438 36.92L59.6538 36.22ZM74.0123 43.51C74.599 43.51 75.0623 43.37 75.4023 43.09C75.749 42.8033 75.9223 42.42 75.9223 41.94C75.9223 41.7333 75.8923 41.54 75.8323 41.36C75.7723 41.18 75.669 41.0267 75.5223 40.9C75.3757 40.7667 75.179 40.6633 74.9323 40.59C74.6923 40.5167 74.389 40.48 74.0223 40.48H72.0123V43.51H74.0123ZM72.0123 36.22V39.13H73.7823C74.049 39.13 74.2923 39.0933 74.5123 39.02C74.739 38.94 74.9323 38.8333 75.0923 38.7C75.259 38.56 75.3857 38.3967 75.4723 38.21C75.5657 38.0167 75.6123 37.8033 75.6123 37.57C75.6123 37.4033 75.5823 37.24 75.5223 37.08C75.4623 36.9133 75.359 36.7667 75.2123 36.64C75.0723 36.5133 74.8857 36.4133 74.6523 36.34C74.419 36.26 74.129 36.22 73.7823 36.22H72.0123ZM73.8523 34.8C74.4857 34.8 75.0323 34.8633 75.4923 34.99C75.9523 35.11 76.329 35.28 76.6223 35.5C76.9223 35.72 77.1423 35.98 77.2823 36.28C77.4223 36.58 77.4923 36.9033 77.4923 37.25C77.4923 37.47 77.4623 37.7 77.4023 37.94C77.3423 38.18 77.239 38.41 77.0923 38.63C76.9457 38.8433 76.7457 39.04 76.4923 39.22C76.2457 39.4 75.929 39.54 75.5423 39.64C76.269 39.7733 76.8423 40.04 77.2623 40.44C77.689 40.8333 77.9023 41.36 77.9023 42.02C77.9023 42.5267 77.799 42.9667 77.5923 43.34C77.3857 43.7133 77.1023 44.0233 76.7423 44.27C76.389 44.5167 75.9757 44.7 75.5023 44.82C75.0357 44.94 74.5423 45 74.0223 45H69.9623V34.8H73.8523ZM88.9128 34.8V45H86.7628V38.61C86.7628 38.47 86.7695 38.3167 86.7828 38.15C86.7961 37.9833 86.8161 37.8133 86.8428 37.64C86.7761 37.7867 86.7095 37.9233 86.6428 38.05C86.5828 38.17 86.5161 38.28 86.4428 38.38L82.0128 44.47C81.9328 44.5967 81.8261 44.72 81.6928 44.84C81.5595 44.9533 81.4095 45.01 81.2428 45.01H79.9428V34.8H82.0928V41.19C82.0928 41.33 82.0828 41.4867 82.0628 41.66C82.0495 41.8333 82.0295 42.0067 82.0028 42.18C82.1361 41.8733 82.2728 41.62 82.4128 41.42L86.8428 35.34C86.9228 35.2067 87.0295 35.0833 87.1628 34.97C87.2961 34.8567 87.4461 34.8 87.6128 34.8H88.9128ZM100.145 36.42H96.3848V45H94.2348V36.42H90.4648V34.8H100.145V36.42ZM105.77 43.44C106.083 43.44 106.357 43.4 106.59 43.32C106.83 43.2333 107.027 43.12 107.18 42.98C107.34 42.8333 107.457 42.66 107.53 42.46C107.61 42.26 107.65 42.04 107.65 41.8C107.65 41.5867 107.613 41.3867 107.54 41.2C107.473 41.0067 107.363 40.84 107.21 40.7C107.063 40.5533 106.87 40.44 106.63 40.36C106.39 40.2733 106.097 40.23 105.75 40.23H103.77V43.44H105.77ZM105.74 38.68C106.447 38.68 107.043 38.7667 107.53 38.94C108.017 39.1067 108.41 39.3333 108.71 39.62C109.01 39.9067 109.227 40.24 109.36 40.62C109.493 40.9933 109.56 41.3833 109.56 41.79C109.56 42.2633 109.477 42.6967 109.31 43.09C109.143 43.4767 108.897 43.8133 108.57 44.1C108.25 44.3867 107.853 44.61 107.38 44.77C106.913 44.9233 106.377 45 105.77 45H101.72V34.8H103.77V38.68H105.74ZM120.399 43.51C120.986 43.51 121.449 43.37 121.789 43.09C122.136 42.8033 122.309 42.42 122.309 41.94C122.309 41.7333 122.279 41.54 122.219 41.36C122.159 41.18 122.056 41.0267 121.909 40.9C121.762 40.7667 121.566 40.6633 121.319 40.59C121.079 40.5167 120.776 40.48 120.409 40.48H118.399V43.51H120.399ZM118.399 36.22V39.13H120.169C120.436 39.13 120.679 39.0933 120.899 39.02C121.126 38.94 121.319 38.8333 121.479 38.7C121.646 38.56 121.772 38.3967 121.859 38.21C121.952 38.0167 121.999 37.8033 121.999 37.57C121.999 37.4033 121.969 37.24 121.909 37.08C121.849 36.9133 121.746 36.7667 121.599 36.64C121.459 36.5133 121.272 36.4133 121.039 36.34C120.806 36.26 120.516 36.22 120.169 36.22H118.399ZM120.239 34.8C120.872 34.8 121.419 34.8633 121.879 34.99C122.339 35.11 122.716 35.28 123.009 35.5C123.309 35.72 123.529 35.98 123.669 36.28C123.809 36.58 123.879 36.9033 123.879 37.25C123.879 37.47 123.849 37.7 123.789 37.94C123.729 38.18 123.626 38.41 123.479 38.63C123.332 38.8433 123.132 39.04 122.879 39.22C122.632 39.4 122.316 39.54 121.929 39.64C122.656 39.7733 123.229 40.04 123.649 40.44C124.076 40.8333 124.289 41.36 124.289 42.02C124.289 42.5267 124.186 42.9667 123.979 43.34C123.772 43.7133 123.489 44.0233 123.129 44.27C122.776 44.5167 122.362 44.7 121.889 44.82C121.422 44.94 120.929 45 120.409 45H116.349V34.8H120.239ZM138.22 43.45V36.47H135.36C135.3 37.4033 135.213 38.24 135.1 38.98C134.993 39.72 134.867 40.3767 134.72 40.95C134.58 41.5167 134.423 42.0067 134.25 42.42C134.077 42.8267 133.897 43.17 133.71 43.45H138.22ZM142.17 43.38V47.81C142.17 48.01 142.11 48.1667 141.99 48.28C141.877 48.4 141.73 48.46 141.55 48.46H140.22V45H132.15V47.85C132.15 48.0033 132.1 48.1433 132 48.27C131.907 48.3967 131.76 48.46 131.56 48.46H130.2V43.45H130.51C130.743 43.45 130.973 43.4167 131.2 43.35C131.427 43.2767 131.643 43.1333 131.85 42.92C132.057 42.7067 132.253 42.4067 132.44 42.02C132.627 41.6267 132.793 41.11 132.94 40.47C133.093 39.83 133.227 39.0467 133.34 38.12C133.453 37.1933 133.543 36.0867 133.61 34.8H140.3V43.38H142.17ZM145.999 42.44C146.299 42.8267 146.626 43.1 146.979 43.26C147.339 43.4133 147.736 43.49 148.169 43.49C149.009 43.49 149.662 43.1833 150.129 42.57C150.602 41.9567 150.839 41.0433 150.839 39.83C150.839 39.2033 150.786 38.67 150.679 38.23C150.572 37.7833 150.419 37.42 150.219 37.14C150.019 36.86 149.776 36.6567 149.489 36.53C149.202 36.4033 148.879 36.34 148.519 36.34C147.972 36.34 147.499 36.46 147.099 36.7C146.706 36.9333 146.339 37.27 145.999 37.71V42.44ZM145.889 36.28C146.316 35.78 146.799 35.3767 147.339 35.07C147.886 34.7633 148.519 34.61 149.239 34.61C149.812 34.61 150.332 34.7267 150.799 34.96C151.266 35.1867 151.666 35.52 151.999 35.96C152.332 36.4 152.589 36.9467 152.769 37.6C152.956 38.2467 153.049 38.99 153.049 39.83C153.049 40.5833 152.946 41.2867 152.739 41.94C152.539 42.5867 152.249 43.15 151.869 43.63C151.489 44.1033 151.029 44.4767 150.489 44.75C149.949 45.0167 149.339 45.15 148.659 45.15C148.059 45.15 147.549 45.0533 147.129 44.86C146.716 44.6667 146.339 44.4 145.999 44.06V48.39H143.849V34.8H145.149C145.442 34.8 145.629 34.9367 145.709 35.21L145.889 36.28ZM163.915 34.8L158.295 47.9C158.221 48.0533 158.131 48.1733 158.025 48.26C157.925 48.3467 157.768 48.39 157.555 48.39H155.965L157.845 44.31L153.685 34.8H155.555C155.735 34.8 155.871 34.8433 155.965 34.93C156.065 35.01 156.138 35.1067 156.185 35.22L158.615 41.01C158.675 41.1767 158.728 41.3433 158.775 41.51C158.828 41.67 158.878 41.8367 158.925 42.01C158.978 41.8367 159.031 41.6667 159.085 41.5C159.138 41.3333 159.198 41.1667 159.265 41L161.595 35.22C161.641 35.1 161.718 35 161.825 34.92C161.938 34.84 162.061 34.8 162.195 34.8H163.915ZM164.596 35.88C164.983 35.5133 165.456 35.2167 166.016 34.99C166.576 34.7567 167.246 34.64 168.026 34.64C168.653 34.64 169.206 34.7167 169.686 34.87C170.166 35.0167 170.57 35.2167 170.896 35.47C171.223 35.7167 171.47 36.0033 171.636 36.33C171.81 36.6567 171.896 36.9967 171.896 37.35C171.896 37.55 171.866 37.7567 171.806 37.97C171.746 38.1767 171.646 38.38 171.506 38.58C171.373 38.78 171.193 38.9667 170.966 39.14C170.746 39.3133 170.473 39.4567 170.146 39.57C170.753 39.77 171.233 40.08 171.586 40.5C171.94 40.9133 172.116 41.43 172.116 42.05C172.116 42.5367 172.003 42.9733 171.776 43.36C171.556 43.74 171.26 44.0633 170.886 44.33C170.52 44.5967 170.093 44.8 169.606 44.94C169.126 45.08 168.626 45.15 168.106 45.15C167.793 45.15 167.466 45.12 167.126 45.06C166.793 45.0067 166.46 44.9167 166.126 44.79C165.8 44.6567 165.483 44.4867 165.176 44.28C164.87 44.0733 164.593 43.82 164.346 43.52L164.966 42.73C165.046 42.5967 165.18 42.53 165.366 42.53C165.5 42.53 165.636 42.58 165.776 42.68C165.916 42.78 166.08 42.89 166.266 43.01C166.46 43.13 166.69 43.24 166.956 43.34C167.23 43.44 167.566 43.49 167.966 43.49C168.3 43.49 168.596 43.45 168.856 43.37C169.116 43.29 169.336 43.1767 169.516 43.03C169.696 42.8833 169.833 42.7133 169.926 42.52C170.02 42.32 170.066 42.1033 170.066 41.87C170.066 41.4167 169.88 41.06 169.506 40.8C169.14 40.5333 168.56 40.4 167.766 40.4H166.616V38.98H167.766C168.46 38.98 168.996 38.8533 169.376 38.6C169.756 38.3467 169.946 38.0167 169.946 37.61C169.946 37.2433 169.78 36.9333 169.446 36.68C169.12 36.4267 168.626 36.3 167.966 36.3C167.593 36.3 167.273 36.34 167.006 36.42C166.746 36.4933 166.526 36.5767 166.346 36.67C166.166 36.7567 166.013 36.8367 165.886 36.91C165.766 36.9833 165.66 37.02 165.566 37.02C165.466 37.02 165.38 37 165.306 36.96C165.24 36.92 165.166 36.8367 165.086 36.71L164.596 35.88ZM178.251 43.44C178.564 43.44 178.837 43.4 179.071 43.32C179.311 43.2333 179.507 43.12 179.661 42.98C179.821 42.8333 179.937 42.66 180.011 42.46C180.091 42.26 180.131 42.04 180.131 41.8C180.131 41.5867 180.094 41.3867 180.021 41.2C179.954 41.0067 179.844 40.84 179.691 40.7C179.544 40.5533 179.351 40.44 179.111 40.36C178.871 40.2733 178.577 40.23 178.231 40.23H176.251V43.44H178.251ZM178.221 38.68C178.927 38.68 179.524 38.7667 180.011 38.94C180.497 39.1067 180.891 39.3333 181.191 39.62C181.491 39.9067 181.707 40.24 181.841 40.62C181.974 40.9933 182.041 41.3833 182.041 41.79C182.041 42.2633 181.957 42.6967 181.791 43.09C181.624 43.4767 181.377 43.8133 181.051 44.1C180.731 44.3867 180.334 44.61 179.861 44.77C179.394 44.9233 178.857 45 178.251 45H174.201V34.8H176.251V38.68H178.221ZM189.091 39.46V36.22H187.581C187.235 36.22 186.945 36.27 186.711 36.37C186.478 36.47 186.291 36.6 186.151 36.76C186.011 36.9133 185.911 37.0867 185.851 37.28C185.791 37.4733 185.761 37.6633 185.761 37.85C185.761 38.35 185.938 38.7433 186.291 39.03C186.651 39.3167 187.135 39.46 187.741 39.46H189.091ZM191.141 34.8V45H189.091V40.82H188.501C188.308 40.82 188.148 40.8367 188.021 40.87C187.895 40.9033 187.785 40.95 187.691 41.01C187.605 41.07 187.525 41.1433 187.451 41.23C187.385 41.3167 187.318 41.4133 187.251 41.52L185.341 44.25C185.201 44.5033 185.035 44.6933 184.841 44.82C184.655 44.94 184.371 45 183.991 45H182.511L185.261 41.29C185.515 40.85 185.868 40.55 186.321 40.39C185.828 40.3167 185.408 40.19 185.061 40.01C184.715 39.83 184.435 39.62 184.221 39.38C184.008 39.14 183.851 38.88 183.751 38.6C183.658 38.3133 183.611 38.03 183.611 37.75C183.611 37.3833 183.681 37.0233 183.821 36.67C183.968 36.3167 184.198 36.0033 184.511 35.73C184.825 35.45 185.228 35.2267 185.721 35.06C186.221 34.8867 186.821 34.8 187.521 34.8H191.141Z" fill="white"/>
<rect x="203" y="20" width="34" height="34" rx="6" fill="white" fill-opacity="0.5"/>
<path d="M219.9 46V28" stroke="white" stroke-width="2" stroke-linecap="round"/>
<path d="M211 37H229" stroke="white" stroke-width="2" stroke-linecap="round"/>
</svg>
