<svg width="206" height="252" viewBox="0 0 206 252" fill="none" xmlns="http://www.w3.org/2000/svg">
<path d="M57.9942 20.4565V5.42097H63.7501C64.8366 5.42097 65.7396 5.59227 66.4591 5.93488C67.1835 6.27259 67.7243 6.73511 68.0816 7.32244C68.4438 7.90977 68.6249 8.57541 68.6249 9.31935C68.6249 9.93115 68.5074 10.4549 68.2725 10.8905C68.0375 11.3212 67.7219 11.6711 67.3254 11.9403C66.929 12.2095 66.486 12.4028 65.9966 12.5203V12.6671C66.5301 12.6965 67.0415 12.8604 67.531 13.159C68.0253 13.4527 68.4291 13.8687 68.7423 14.4071C69.0556 14.9455 69.2122 15.5964 69.2122 16.3599C69.2122 17.1381 69.0238 17.838 68.6469 18.4596C68.27 19.0763 67.7023 19.5633 66.9436 19.9206C66.185 20.2779 65.2306 20.4565 64.0804 20.4565H57.9942ZM60.718 18.1807H63.6473C64.6359 18.1807 65.3481 17.9922 65.7837 17.6153C66.2242 17.2336 66.4444 16.7441 66.4444 16.147C66.4444 15.7016 66.3343 15.3003 66.114 14.943C65.8938 14.5808 65.5806 14.297 65.1743 14.0914C64.7681 13.8809 64.2835 13.7757 63.7207 13.7757H60.718V18.1807ZM60.718 11.8155H63.4123C63.8822 11.8155 64.3056 11.7298 64.6824 11.5585C65.0593 11.3823 65.3554 11.1352 65.5708 10.817C65.791 10.494 65.9011 10.1122 65.9011 9.67175C65.9011 9.08932 65.6956 8.60967 65.2844 8.2328C64.8782 7.85593 64.2738 7.6675 63.4711 7.6675H60.718V11.8155ZM76.3831 20.6768C75.2574 20.6768 74.2907 20.4296 73.4832 19.9353C72.6805 19.441 72.0613 18.7582 71.6257 17.887C71.195 17.0109 70.9797 16.0026 70.9797 14.8623C70.9797 13.717 71.1999 12.7063 71.6404 11.8302C72.0809 10.9492 72.7025 10.264 73.5052 9.77453C74.3128 9.2802 75.2672 9.03303 76.3684 9.03303C77.2837 9.03303 78.0937 9.20189 78.7985 9.5396C79.5082 9.87242 80.0735 10.3447 80.4944 10.9565C80.9153 11.5634 81.1551 12.2731 81.2139 13.0856H78.6737C78.5709 12.5423 78.3262 12.0896 77.9395 11.7274C77.5577 11.3603 77.0463 11.1768 76.4051 11.1768C75.8618 11.1768 75.3846 11.3236 74.9735 11.6173C74.5624 11.906 74.2418 12.3221 74.0118 12.8653C73.7866 13.4086 73.674 14.0596 73.674 14.8182C73.674 15.5866 73.7866 16.2474 74.0118 16.8004C74.2369 17.3486 74.5526 17.772 74.9588 18.0705C75.37 18.3642 75.8521 18.511 76.4051 18.511C76.7967 18.511 77.1466 18.4376 77.455 18.2908C77.7682 18.139 78.0301 17.9212 78.2405 17.6374C78.451 17.3535 78.5954 17.0084 78.6737 16.6022H81.2139C81.1502 17.4 80.9153 18.1072 80.5091 18.7239C80.1028 19.3357 79.5498 19.8154 78.8499 20.1629C78.15 20.5055 77.3277 20.6768 76.3831 20.6768ZM82.5776 11.3603V9.17986H92.4446V11.3603H88.7959V20.4565H86.2263V11.3603H82.5776ZM97.3415 20.6841C96.6269 20.6841 95.9833 20.5569 95.4107 20.3024C94.8429 20.043 94.3926 19.6612 94.0598 19.1571C93.7319 18.653 93.5679 18.0314 93.5679 17.2923C93.5679 16.656 93.6854 16.1299 93.9203 15.7139C94.1552 15.2979 94.4758 14.965 94.8821 14.7154C95.2883 14.4658 95.7459 14.2774 96.2549 14.1501C96.7688 14.018 97.2999 13.9225 97.8481 13.8638C98.5088 13.7953 99.0447 13.7341 99.4559 13.6803C99.867 13.6215 100.166 13.5334 100.352 13.416C100.542 13.2936 100.638 13.1052 100.638 12.8507V12.8066C100.638 12.2535 100.474 11.8253 100.146 11.5218C99.8181 11.2184 99.3457 11.0667 98.729 11.0667C98.0781 11.0667 97.5617 11.2086 97.18 11.4925C96.8031 11.7763 96.5486 12.1116 96.4164 12.4983L93.935 12.1459C94.1308 11.4607 94.4538 10.888 94.9041 10.4279C95.3544 9.96297 95.905 9.61546 96.5559 9.38543C97.2069 9.1505 97.9264 9.03303 98.7144 9.03303C99.2576 9.03303 99.7985 9.09666 100.337 9.22391C100.875 9.35117 101.367 9.56163 101.813 9.85529C102.258 10.1441 102.615 10.5381 102.884 11.0373C103.158 11.5365 103.296 12.1605 103.296 12.9094V20.4565H100.741V18.9075H100.653C100.491 19.2207 100.263 19.5144 99.9698 19.7885C99.681 20.0576 99.3164 20.2755 98.8759 20.4419C98.4403 20.6034 97.9288 20.6841 97.3415 20.6841ZM98.0316 18.7313C98.5651 18.7313 99.0276 18.626 99.4192 18.4156C99.8107 18.2002 100.112 17.9164 100.322 17.564C100.538 17.2116 100.645 16.8274 100.645 16.4113V15.0825C100.562 15.151 100.42 15.2146 100.219 15.2734C100.024 15.3321 99.8034 15.3835 99.5586 15.4276C99.3139 15.4716 99.0717 15.5108 98.8318 15.545C98.592 15.5793 98.384 15.6086 98.2078 15.6331C97.8114 15.687 97.4565 15.7751 97.1433 15.8974C96.83 16.0198 96.5829 16.1911 96.4018 16.4113C96.2207 16.6267 96.1301 16.9057 96.1301 17.2483C96.1301 17.7377 96.3088 18.1072 96.6661 18.3568C97.0234 18.6065 97.4785 18.7313 98.0316 18.7313ZM105.968 20.4565V9.17986H110.703C112.039 9.17986 113.094 9.44661 113.867 9.9801C114.646 10.5136 115.035 11.2575 115.035 12.2119C115.035 12.8433 114.814 13.3597 114.374 13.761C113.938 14.1575 113.344 14.4242 112.59 14.5612C113.182 14.6102 113.701 14.7595 114.146 15.0091C114.597 15.2587 114.949 15.5866 115.204 15.9929C115.458 16.3991 115.585 16.8665 115.585 17.3951C115.585 18.0167 115.421 18.5575 115.093 19.0176C114.77 19.4728 114.298 19.8276 113.677 20.0821C113.06 20.3317 112.311 20.4565 111.43 20.4565H105.968ZM108.457 18.3642H111.43C111.919 18.3642 112.304 18.2492 112.583 18.0191C112.862 17.7842 113.001 17.4661 113.001 17.0647C113.001 16.5998 112.862 16.2351 112.583 15.9708C112.304 15.7016 111.919 15.567 111.43 15.567H108.457V18.3642ZM108.457 13.8491H110.755C111.117 13.8491 111.428 13.7977 111.687 13.6949C111.946 13.5873 112.145 13.438 112.282 13.2471C112.419 13.0513 112.487 12.8188 112.487 12.5497C112.487 12.163 112.328 11.8595 112.01 11.6393C111.697 11.419 111.261 11.3089 110.703 11.3089H108.457V13.8491ZM119.577 12.8507H122.903C124.342 12.8507 125.455 13.2006 126.243 13.9005C127.031 14.6004 127.428 15.5181 127.433 16.6536C127.428 17.3927 127.247 18.0485 126.89 18.6211C126.537 19.1938 126.023 19.6441 125.348 19.972C124.677 20.295 123.862 20.4565 122.903 20.4565H117.779V9.17986H120.341V18.2761H122.903C123.481 18.2761 123.955 18.1293 124.327 17.8356C124.699 17.537 124.885 17.1553 124.885 16.6903C124.885 16.2009 124.699 15.802 124.327 15.4936C123.955 15.1853 123.481 15.0311 122.903 15.0311H119.577V12.8507ZM127.923 11.3603V9.17986H137.79V11.3603H134.141V20.4565H131.572V11.3603H127.923ZM144.434 20.6768C143.304 20.6768 142.327 20.4419 141.505 19.972C140.687 19.4972 140.059 18.8267 139.618 17.9604C139.178 17.0892 138.957 16.0638 138.957 14.8843C138.957 13.7243 139.178 12.7063 139.618 11.8302C140.063 10.9492 140.685 10.264 141.483 9.77453C142.281 9.2802 143.218 9.03303 144.295 9.03303C144.99 9.03303 145.645 9.1456 146.262 9.37074C146.884 9.59099 147.432 9.9336 147.907 10.3986C148.386 10.8635 148.763 11.4558 149.037 12.1752C149.311 12.8898 149.448 13.7414 149.448 14.7301V15.545H140.205V13.7537H146.901C146.896 13.2447 146.786 12.7919 146.571 12.3955C146.355 11.9941 146.054 11.6785 145.667 11.4484C145.286 11.2184 144.84 11.1034 144.331 11.1034C143.788 11.1034 143.311 11.2355 142.9 11.4998C142.489 11.7592 142.168 12.1018 141.938 12.5276C141.713 12.9485 141.598 13.4111 141.593 13.9152V15.4789C141.593 16.1348 141.713 16.6976 141.953 17.1675C142.192 17.6325 142.528 17.9898 142.958 18.2394C143.389 18.4841 143.893 18.6065 144.471 18.6065C144.857 18.6065 145.207 18.5526 145.521 18.4449C145.834 18.3324 146.106 18.1684 146.336 17.9531C146.566 17.7377 146.739 17.471 146.857 17.1528L149.338 17.4318C149.182 18.0877 148.883 18.6603 148.443 19.1497C148.007 19.6343 147.449 20.0112 146.769 20.2803C146.088 20.5446 145.31 20.6768 144.434 20.6768ZM43.4295 41.8592L47.9445 34.1799H50.6756V45.4565H48.106V37.7699L43.6057 45.4565H40.8672V34.1799H43.4295V41.8592ZM52.7808 42.3657H55.4164C55.4409 42.7867 55.6293 43.1121 55.9817 43.3422C56.3341 43.5722 56.7918 43.6872 57.3546 43.6872C57.9273 43.6872 58.4094 43.5624 58.8009 43.3128C59.1974 43.0583 59.3956 42.6741 59.3956 42.1602C59.3956 41.8567 59.3197 41.59 59.168 41.3599C59.0163 41.125 58.8034 40.9439 58.5293 40.8167C58.2552 40.6894 57.9322 40.6258 57.5602 40.6258H55.8349V38.739H57.5602C58.1132 38.739 58.5317 38.6117 58.8156 38.3572C59.1044 38.1027 59.2487 37.7821 59.2487 37.3955C59.2487 36.9795 59.097 36.6417 58.7936 36.3823C58.495 36.1229 58.0814 35.9932 57.5528 35.9932C57.0242 35.9932 56.5837 36.1131 56.2313 36.353C55.8838 36.5928 55.7028 36.9011 55.6881 37.278H53.0671C53.0769 36.6222 53.2727 36.052 53.6545 35.5674C54.0411 35.0829 54.5599 34.706 55.2109 34.4368C55.8667 34.1676 56.6058 34.033 57.428 34.033C58.309 34.033 59.0701 34.1652 59.7113 34.4295C60.3524 34.6938 60.8468 35.0633 61.1943 35.5381C61.5418 36.0079 61.7155 36.561 61.7155 37.1973C61.7155 37.8091 61.5246 38.3156 61.1429 38.717C60.7611 39.1134 60.2472 39.3973 59.6011 39.5686V39.6861C60.0465 39.7105 60.4479 39.8378 60.8052 40.0678C61.1624 40.293 61.4463 40.5989 61.6568 40.9855C61.8672 41.3722 61.9725 41.82 61.9725 42.329C61.9725 43.0191 61.7742 43.6163 61.3778 44.1204C60.9814 44.6196 60.4356 45.0038 59.7406 45.273C59.0505 45.5422 58.2601 45.6768 57.3693 45.6768C56.503 45.6768 55.7272 45.5471 55.042 45.2877C54.3617 45.0234 53.8209 44.6441 53.4195 44.1497C53.0182 43.6554 52.8053 43.0607 52.7808 42.3657ZM68.9837 45.6768C67.8824 45.6768 66.928 45.4345 66.1205 44.95C65.3129 44.4654 64.6864 43.7876 64.241 42.9164C63.8005 42.0452 63.5803 41.0271 63.5803 39.8623C63.5803 38.6974 63.8005 37.6769 64.241 36.8008C64.6864 35.9247 65.3129 35.2444 66.1205 34.7598C66.928 34.2753 67.8824 34.033 68.9837 34.033C70.0849 34.033 71.0393 34.2753 71.8469 34.7598C72.6545 35.2444 73.2785 35.9247 73.719 36.8008C74.1644 37.6769 74.3871 38.6974 74.3871 39.8623C74.3871 41.0271 74.1644 42.0452 73.719 42.9164C73.2785 43.7876 72.6545 44.4654 71.8469 44.95C71.0393 45.4345 70.0849 45.6768 68.9837 45.6768ZM68.9984 43.5477C69.5955 43.5477 70.0947 43.3838 70.4961 43.0558C70.8974 42.723 71.196 42.2776 71.3917 41.7197C71.5924 41.1617 71.6927 40.5401 71.6927 39.8549C71.6927 39.1648 71.5924 38.5408 71.3917 37.9828C71.196 37.42 70.8974 36.9721 70.4961 36.6393C70.0947 36.3065 69.5955 36.1401 68.9984 36.1401C68.3866 36.1401 67.8776 36.3065 67.4713 36.6393C67.07 36.9721 66.769 37.42 66.5683 37.9828C66.3725 38.5408 66.2746 39.1648 66.2746 39.8549C66.2746 40.5401 66.3725 41.1617 66.5683 41.7197C66.769 42.2776 67.07 42.723 67.4713 43.0558C67.8776 43.3838 68.3866 43.5477 68.9984 43.5477ZM85.6803 30.0098L86.6053 31.7278C86.2774 32.0116 85.9103 32.2172 85.5041 32.3445C85.0979 32.4717 84.6207 32.5549 84.0725 32.5941C83.5292 32.6283 82.8832 32.6528 82.1343 32.6675C81.2925 32.6871 80.6048 32.8461 80.0713 33.1447C79.5378 33.4433 79.1292 33.896 78.8453 34.5029C78.5614 35.1049 78.3754 35.8733 78.2873 36.8082H78.4121C78.7645 36.118 79.2589 35.5919 79.8951 35.2297C80.5314 34.8675 81.2778 34.6864 82.1343 34.6864C83.0691 34.6864 83.8938 34.8969 84.6084 35.3178C85.3279 35.7338 85.8883 36.3383 86.2897 37.1312C86.6959 37.9241 86.899 38.8834 86.899 40.0091C86.899 41.1691 86.6812 42.1749 86.2456 43.0265C85.81 43.8732 85.1909 44.5266 84.3882 44.9867C83.5904 45.4468 82.6433 45.6768 81.547 45.6768C80.4555 45.6768 79.506 45.4394 78.6984 44.9647C77.8958 44.485 77.2742 43.7778 76.8337 42.8429C76.3981 41.9032 76.1803 40.7457 76.1803 39.3704V38.3572C76.1803 35.7045 76.6746 33.7247 77.6633 32.4179C78.652 31.1111 80.1178 30.4454 82.0609 30.421C82.6384 30.4112 83.1548 30.4087 83.61 30.4136C84.07 30.4185 84.4714 30.3965 84.814 30.3476C85.1566 30.2986 85.4454 30.186 85.6803 30.0098ZM81.5617 43.5477C82.1049 43.5477 82.5748 43.4082 82.9713 43.1293C83.3677 42.8454 83.6712 42.444 83.8816 41.9252C84.097 41.4064 84.2046 40.7922 84.2046 40.0825C84.2046 39.3826 84.097 38.7879 83.8816 38.2985C83.6663 37.8042 83.3604 37.4273 82.9639 37.1679C82.5675 36.9085 82.0952 36.7788 81.547 36.7788C81.1359 36.7788 80.7663 36.8522 80.4384 36.999C80.1105 37.1459 79.8315 37.3612 79.6015 37.6451C79.3714 37.929 79.1952 38.274 79.0729 38.6803C78.9505 39.0865 78.8844 39.5539 78.8746 40.0825C78.8746 41.1446 79.1145 41.9889 79.5941 42.6153C80.0738 43.2369 80.7296 43.5477 81.5617 43.5477ZM89.1602 49.6853V34.1799H91.7738V36.0446H91.928C92.065 35.7705 92.2584 35.4793 92.508 35.171C92.7576 34.8577 93.0953 34.591 93.5211 34.3707C93.9469 34.1456 94.4902 34.033 95.1509 34.033C96.0221 34.033 96.8077 34.2557 97.5076 34.7011C98.2124 35.1416 98.7703 35.795 99.1815 36.6613C99.5975 37.5227 99.8055 38.5799 99.8055 39.8329C99.8055 41.0712 99.6024 42.1235 99.1962 42.9898C98.7899 43.8561 98.2369 44.5168 97.537 44.972C96.8371 45.4272 96.0442 45.6548 95.1583 45.6548C94.5122 45.6548 93.9763 45.5471 93.5505 45.3317C93.1247 45.1164 92.7821 44.857 92.5227 44.5535C92.2681 44.2452 92.0699 43.954 91.928 43.6799H91.8179V49.6853H89.1602ZM91.7665 39.8182C91.7665 40.5475 91.8693 41.1862 92.0748 41.7344C92.2853 42.2825 92.5863 42.7108 92.9778 43.0191C93.3743 43.3226 93.8539 43.4743 94.4168 43.4743C95.0041 43.4743 95.496 43.3177 95.8924 43.0045C96.2889 42.6863 96.5874 42.2532 96.7881 41.705C96.9937 41.1519 97.0965 40.523 97.0965 39.8182C97.0965 39.1183 96.9961 38.4967 96.7955 37.9534C96.5948 37.4102 96.2962 36.9844 95.8998 36.676C95.5033 36.3677 95.009 36.2135 94.4168 36.2135C93.849 36.2135 93.3669 36.3628 92.9705 36.6613C92.574 36.9599 92.273 37.3783 92.0675 37.9167C91.8668 38.4551 91.7665 39.0889 91.7665 39.8182ZM105.326 45.6841C104.612 45.6841 103.968 45.5569 103.396 45.3024C102.828 45.043 102.378 44.6612 102.045 44.1571C101.717 43.653 101.553 43.0314 101.553 42.2923C101.553 41.656 101.67 41.1299 101.905 40.7139C102.14 40.2979 102.461 39.965 102.867 39.7154C103.273 39.4658 103.731 39.2774 104.24 39.1501C104.754 39.018 105.285 38.9225 105.833 38.8638C106.494 38.7953 107.03 38.7341 107.441 38.6803C107.852 38.6215 108.15 38.5334 108.336 38.416C108.527 38.2936 108.623 38.1052 108.623 37.8507V37.8066C108.623 37.2535 108.459 36.8253 108.131 36.5218C107.803 36.2184 107.331 36.0667 106.714 36.0667C106.063 36.0667 105.547 36.2086 105.165 36.4925C104.788 36.7763 104.533 37.1116 104.401 37.4983L101.92 37.1459C102.116 36.4607 102.439 35.888 102.889 35.4279C103.339 34.963 103.89 34.6155 104.541 34.3854C105.192 34.1505 105.911 34.033 106.699 34.033C107.243 34.033 107.783 34.0967 108.322 34.2239C108.86 34.3512 109.352 34.5616 109.797 34.8553C110.243 35.1441 110.6 35.5381 110.869 36.0373C111.143 36.5365 111.28 37.1605 111.28 37.9094V45.4565H108.726V43.9075H108.637C108.476 44.2207 108.248 44.5144 107.955 44.7885C107.666 45.0576 107.301 45.2755 106.861 45.4419C106.425 45.6034 105.914 45.6841 105.326 45.6841ZM106.016 43.7313C106.55 43.7313 107.013 43.626 107.404 43.4156C107.796 43.2002 108.097 42.9164 108.307 42.564C108.522 42.2116 108.63 41.8274 108.63 41.4113V40.0825C108.547 40.151 108.405 40.2146 108.204 40.2734C108.009 40.3321 107.788 40.3835 107.544 40.4276C107.299 40.4716 107.057 40.5108 106.817 40.545C106.577 40.5793 106.369 40.6086 106.193 40.6331C105.796 40.687 105.441 40.7751 105.128 40.8974C104.815 41.0198 104.568 41.1911 104.387 41.4113C104.206 41.6267 104.115 41.9057 104.115 42.2483C104.115 42.7377 104.294 43.1072 104.651 43.3568C105.008 43.6065 105.463 43.7313 106.016 43.7313ZM113.219 45.4565L117.381 39.6347L113.255 34.1799H116.324L119.532 38.7243H120.164V34.1799H122.821V38.7243H123.438L126.646 34.1799H129.715L125.611 39.6347L129.752 45.4565H126.617L123.409 40.9048H122.821V45.4565H120.164V40.9048H119.576L116.353 45.4565H113.219ZM139.485 38.717V40.8974H133.48V38.717H139.485ZM134.302 34.1799V45.4565H131.74V34.1799H134.302ZM141.225 34.1799V45.4565H138.67V34.1799H141.225ZM146.476 41.8592L150.991 34.1799H153.722V45.4565H151.153V37.7699L146.652 45.4565H143.914V34.1799H146.476V41.8592ZM161.444 45.6768C160.313 45.6768 159.337 45.4419 158.514 44.972C157.697 44.4972 157.068 43.8267 156.628 42.9604C156.187 42.0892 155.967 41.0638 155.967 39.8843C155.967 38.7243 156.187 37.7063 156.628 36.8302C157.073 35.9492 157.695 35.264 158.492 34.7745C159.29 34.2802 160.227 34.033 161.304 34.033C161.999 34.033 162.655 34.1456 163.272 34.3707C163.893 34.591 164.441 34.9336 164.916 35.3986C165.396 35.8635 165.773 36.4558 166.047 37.1752C166.321 37.8898 166.458 38.7414 166.458 39.7301V40.545H157.215V38.7537H163.91C163.906 38.2447 163.795 37.7919 163.58 37.3955C163.365 36.9941 163.064 36.6785 162.677 36.4484C162.295 36.2184 161.85 36.1034 161.341 36.1034C160.798 36.1034 160.32 36.2355 159.909 36.4998C159.498 36.7592 159.178 37.1018 158.948 37.5276C158.722 37.9485 158.607 38.4111 158.602 38.9152V40.4789C158.602 41.1348 158.722 41.6976 158.962 42.1675C159.202 42.6325 159.537 42.9898 159.968 43.2394C160.399 43.4841 160.903 43.6065 161.48 43.6065C161.867 43.6065 162.217 43.5526 162.53 43.4449C162.843 43.3324 163.115 43.1684 163.345 42.9531C163.575 42.7377 163.749 42.471 163.866 42.1528L166.348 42.4318C166.191 43.0877 165.893 43.6603 165.452 44.1497C165.017 44.6343 164.459 45.0112 163.778 45.2803C163.098 45.5446 162.32 45.6768 161.444 45.6768Z" fill="#988FFF"/>
<path d="M127.798 204.838L109.837 187.027C101.17 178.431 96.8361 174.134 91.8636 172.563C87.4897 171.181 82.7886 171.232 78.4458 172.708C73.5077 174.387 69.2681 178.777 60.789 187.557L17.755 230.062M127.798 204.838L131.475 201.193C140.152 192.588 144.491 188.285 149.469 186.714C153.848 185.332 158.552 185.387 162.898 186.869C167.838 188.553 172.077 192.955 180.555 201.757L189.563 210.824M127.798 204.838L170.989 248.113M17.755 230.062C18.0891 232.776 18.6581 234.921 19.6275 236.823C21.6921 240.875 24.9866 244.17 29.0388 246.234C33.6454 248.582 39.6758 248.582 51.7368 248.582H155.106C162.152 248.582 167.14 248.582 170.989 248.113M17.755 230.062C17.2803 226.207 17.2803 221.205 17.2803 214.125V110.755C17.2803 98.6946 17.2803 92.6641 19.6275 88.0575C21.6921 84.0053 24.9866 80.7108 29.0388 78.6462C33.6454 76.2989 39.6758 76.299 51.7368 76.299H155.106C167.167 76.299 173.198 76.2989 177.805 78.6462C181.856 80.7108 185.151 84.0053 187.216 88.0575C189.563 92.6641 189.563 98.6946 189.563 110.755V210.824M189.563 210.824V214.125C189.563 226.186 189.563 232.217 187.216 236.823C185.151 240.875 181.856 244.17 177.805 246.234C175.889 247.211 173.727 247.78 170.989 248.113M157.26 130.136C157.26 142.03 147.619 151.672 135.725 151.672C123.831 151.672 114.189 142.03 114.189 130.136C114.189 118.242 123.831 108.601 135.725 108.601C147.619 108.601 157.26 118.242 157.26 130.136Z" stroke="#988FFF" stroke-opacity="0.6" stroke-width="5" stroke-linecap="round" stroke-linejoin="round"/>
</svg>
