<svg width="256" height="72" viewBox="0 0 256 72" fill="none" xmlns="http://www.w3.org/2000/svg">
<rect x="0.5" y="0.5" width="255" height="71" rx="19.5" fill="#F76E50" fill-opacity="0.06"/>
<rect x="0.5" y="0.5" width="255" height="71" rx="19.5" stroke="#F76E50"/>
<path d="M32.81 29.6L26.98 42.05C26.7867 42.4633 26.5767 42.8067 26.35 43.08C26.13 43.3467 25.89 43.56 25.63 43.72C25.3767 43.8733 25.1033 43.98 24.81 44.04C24.5167 44.1067 24.2 44.14 23.86 44.14C23.0267 44.14 22.61 43.99 22.61 43.69V42.21H23.34C23.5 42.21 23.66 42.1933 23.82 42.16C23.98 42.1267 24.1333 42.07 24.28 41.99C24.4333 41.9033 24.58 41.7867 24.72 41.64C24.86 41.4867 24.99 41.29 25.11 41.05L25.74 39.75L19.96 29.6H22.15C22.35 29.6 22.51 29.65 22.63 29.75C22.75 29.85 22.8533 29.9767 22.94 30.13L26.1 35.97C26.3733 36.4833 26.5967 37.0233 26.77 37.59C26.8433 37.31 26.93 37.0367 27.03 36.77C27.1367 36.5033 27.2533 36.2333 27.38 35.96L30.1 30.13C30.16 29.9967 30.2567 29.8767 30.39 29.77C30.5233 29.6567 30.6867 29.6 30.88 29.6H32.81ZM38.2395 42.45V35.47H35.3795C35.3195 36.4033 35.2329 37.24 35.1195 37.98C35.0129 38.72 34.8862 39.3767 34.7395 39.95C34.5995 40.5167 34.4429 41.0067 34.2695 41.42C34.0962 41.8267 33.9162 42.17 33.7295 42.45H38.2395ZM42.1895 42.38V46.81C42.1895 47.01 42.1295 47.1667 42.0095 47.28C41.8962 47.4 41.7495 47.46 41.5695 47.46H40.2395V44H32.1695V46.85C32.1695 47.0033 32.1195 47.1433 32.0195 47.27C31.9262 47.3967 31.7795 47.46 31.5795 47.46H30.2195V42.45H30.5295C30.7629 42.45 30.9929 42.4167 31.2195 42.35C31.4462 42.2767 31.6629 42.1333 31.8695 41.92C32.0762 41.7067 32.2729 41.4067 32.4595 41.02C32.6462 40.6267 32.8129 40.11 32.9595 39.47C33.1129 38.83 33.2462 38.0467 33.3595 37.12C33.4729 36.1933 33.5629 35.0867 33.6295 33.8H40.3195V42.38H42.1895ZM49.3186 39.54C48.5519 39.5667 47.9053 39.63 47.3786 39.73C46.8519 39.8233 46.4253 39.9467 46.0986 40.1C45.7719 40.2467 45.5353 40.4233 45.3886 40.63C45.2486 40.8367 45.1786 41.0633 45.1786 41.31C45.1786 41.55 45.2153 41.7567 45.2886 41.93C45.3686 42.0967 45.4753 42.2367 45.6086 42.35C45.7486 42.4567 45.9086 42.5367 46.0886 42.59C46.2753 42.6367 46.4786 42.66 46.6986 42.66C47.2586 42.66 47.7386 42.5567 48.1386 42.35C48.5453 42.1367 48.9386 41.83 49.3186 41.43V39.54ZM43.6186 35.22C44.7719 34.1467 46.1453 33.61 47.7386 33.61C48.3253 33.61 48.8453 33.7067 49.2986 33.9C49.7586 34.0867 50.1419 34.3533 50.4486 34.7C50.7619 35.0467 50.9986 35.46 51.1586 35.94C51.3253 36.4133 51.4086 36.94 51.4086 37.52V44H50.4486C50.2419 44 50.0853 43.97 49.9786 43.91C49.8719 43.8433 49.7819 43.7133 49.7086 43.52L49.4986 42.69C49.2386 42.9233 48.9819 43.1333 48.7286 43.32C48.4753 43.5 48.2119 43.6533 47.9386 43.78C47.6719 43.9067 47.3819 44 47.0686 44.06C46.7619 44.1267 46.4219 44.16 46.0486 44.16C45.6353 44.16 45.2486 44.1033 44.8886 43.99C44.5353 43.8767 44.2286 43.7067 43.9686 43.48C43.7086 43.2467 43.5019 42.96 43.3486 42.62C43.2019 42.28 43.1286 41.88 43.1286 41.42C43.1286 41.0267 43.2319 40.6433 43.4386 40.27C43.6519 39.8967 43.9986 39.5633 44.4786 39.27C44.9653 38.97 45.6019 38.7233 46.3886 38.53C47.1819 38.3367 48.1586 38.2267 49.3186 38.2V37.52C49.3186 36.7867 49.1619 36.24 48.8486 35.88C48.5353 35.52 48.0753 35.34 47.4686 35.34C47.0553 35.34 46.7086 35.3933 46.4286 35.5C46.1486 35.6 45.9053 35.71 45.6986 35.83C45.4919 35.95 45.3086 36.0633 45.1486 36.17C44.9886 36.27 44.8186 36.32 44.6386 36.32C44.4919 36.32 44.3653 36.2833 44.2586 36.21C44.1586 36.13 44.0753 36.0333 44.0086 35.92L43.6186 35.22ZM63.1472 44H60.9972V35.47H58.1572C58.0772 36.7433 57.9539 37.8433 57.7872 38.77C57.6272 39.69 57.4339 40.47 57.2072 41.11C56.9805 41.75 56.7272 42.27 56.4472 42.67C56.1672 43.0633 55.8705 43.37 55.5572 43.59C55.2439 43.81 54.9205 43.9567 54.5872 44.03C54.2605 44.1033 53.9305 44.14 53.5972 44.14C52.9505 44.14 52.6272 44.0333 52.6272 43.82V42.47H53.1872C53.4072 42.47 53.6305 42.4333 53.8572 42.36C54.0905 42.2867 54.3139 42.1433 54.5272 41.93C54.7405 41.71 54.9439 41.4033 55.1372 41.01C55.3372 40.6167 55.5172 40.1 55.6772 39.46C55.8439 38.8133 55.9872 38.03 56.1072 37.11C56.2272 36.1833 56.3205 35.08 56.3872 33.8H63.1472V44ZM74.7331 33.8V44H72.5831V37.61C72.5831 37.47 72.5898 37.3167 72.6031 37.15C72.6165 36.9833 72.6365 36.8133 72.6631 36.64C72.5965 36.7867 72.5298 36.9233 72.4631 37.05C72.4031 37.17 72.3365 37.28 72.2631 37.38L67.8331 43.47C67.7531 43.5967 67.6465 43.72 67.5131 43.84C67.3798 43.9533 67.2298 44.01 67.0631 44.01H65.7631V33.8H67.9131V40.19C67.9131 40.33 67.9031 40.4867 67.8831 40.66C67.8698 40.8333 67.8498 41.0067 67.8231 41.18C67.9565 40.8733 68.0931 40.62 68.2331 40.42L72.6631 34.34C72.7431 34.2067 72.8498 34.0833 72.9831 33.97C73.1165 33.8567 73.2665 33.8 73.4331 33.8H74.7331ZM85.9652 35.42H82.2052V44H80.0552V35.42H76.2852V33.8H85.9652V35.42ZM91.5905 42.44C91.9038 42.44 92.1771 42.4 92.4105 42.32C92.6505 42.2333 92.8471 42.12 93.0005 41.98C93.1605 41.8333 93.2771 41.66 93.3505 41.46C93.4305 41.26 93.4705 41.04 93.4705 40.8C93.4705 40.5867 93.4338 40.3867 93.3605 40.2C93.2938 40.0067 93.1838 39.84 93.0305 39.7C92.8838 39.5533 92.6905 39.44 92.4505 39.36C92.2105 39.2733 91.9171 39.23 91.5705 39.23H89.5905V42.44H91.5905ZM91.5605 37.68C92.2671 37.68 92.8638 37.7667 93.3505 37.94C93.8371 38.1067 94.2305 38.3333 94.5305 38.62C94.8305 38.9067 95.0471 39.24 95.1805 39.62C95.3138 39.9933 95.3805 40.3833 95.3805 40.79C95.3805 41.2633 95.2971 41.6967 95.1305 42.09C94.9638 42.4767 94.7171 42.8133 94.3905 43.1C94.0705 43.3867 93.6738 43.61 93.2005 43.77C92.7338 43.9233 92.1971 44 91.5905 44H87.5405V33.8H89.5905V37.68H91.5605ZM111.139 33.8V44H108.989V37.61C108.989 37.47 108.996 37.3167 109.009 37.15C109.023 36.9833 109.043 36.8133 109.069 36.64C109.003 36.7867 108.936 36.9233 108.869 37.05C108.809 37.17 108.743 37.28 108.669 37.38L104.239 43.47C104.159 43.5967 104.053 43.72 103.919 43.84C103.786 43.9533 103.636 44.01 103.469 44.01H102.169V33.8H104.319V40.19C104.319 40.33 104.309 40.4867 104.289 40.66C104.276 40.8333 104.256 41.0067 104.229 41.18C104.363 40.8733 104.499 40.62 104.639 40.42L109.069 34.34C109.149 34.2067 109.256 34.0833 109.389 33.97C109.523 33.8567 109.673 33.8 109.839 33.8H111.139ZM113.131 34.88C113.518 34.5133 113.991 34.2167 114.551 33.99C115.111 33.7567 115.781 33.64 116.561 33.64C117.188 33.64 117.741 33.7167 118.221 33.87C118.701 34.0167 119.105 34.2167 119.431 34.47C119.758 34.7167 120.005 35.0033 120.171 35.33C120.345 35.6567 120.431 35.9967 120.431 36.35C120.431 36.55 120.401 36.7567 120.341 36.97C120.281 37.1767 120.181 37.38 120.041 37.58C119.908 37.78 119.728 37.9667 119.501 38.14C119.281 38.3133 119.008 38.4567 118.681 38.57C119.288 38.77 119.768 39.08 120.121 39.5C120.475 39.9133 120.651 40.43 120.651 41.05C120.651 41.5367 120.538 41.9733 120.311 42.36C120.091 42.74 119.795 43.0633 119.421 43.33C119.055 43.5967 118.628 43.8 118.141 43.94C117.661 44.08 117.161 44.15 116.641 44.15C116.328 44.15 116.001 44.12 115.661 44.06C115.328 44.0067 114.995 43.9167 114.661 43.79C114.335 43.6567 114.018 43.4867 113.711 43.28C113.405 43.0733 113.128 42.82 112.881 42.52L113.501 41.73C113.581 41.5967 113.715 41.53 113.901 41.53C114.035 41.53 114.171 41.58 114.311 41.68C114.451 41.78 114.615 41.89 114.801 42.01C114.995 42.13 115.225 42.24 115.491 42.34C115.765 42.44 116.101 42.49 116.501 42.49C116.835 42.49 117.131 42.45 117.391 42.37C117.651 42.29 117.871 42.1767 118.051 42.03C118.231 41.8833 118.368 41.7133 118.461 41.52C118.555 41.32 118.601 41.1033 118.601 40.87C118.601 40.4167 118.415 40.06 118.041 39.8C117.675 39.5333 117.095 39.4 116.301 39.4H115.151V37.98H116.301C116.995 37.98 117.531 37.8533 117.911 37.6C118.291 37.3467 118.481 37.0167 118.481 36.61C118.481 36.2433 118.315 35.9333 117.981 35.68C117.655 35.4267 117.161 35.3 116.501 35.3C116.128 35.3 115.808 35.34 115.541 35.42C115.281 35.4933 115.061 35.5767 114.881 35.67C114.701 35.7567 114.548 35.8367 114.421 35.91C114.301 35.9833 114.195 36.02 114.101 36.02C114.001 36.02 113.915 36 113.841 35.96C113.775 35.92 113.701 35.8367 113.621 35.71L113.131 34.88ZM134.626 42.45V35.47H131.766C131.706 36.4033 131.62 37.24 131.506 37.98C131.4 38.72 131.273 39.3767 131.126 39.95C130.986 40.5167 130.83 41.0067 130.656 41.42C130.483 41.8267 130.303 42.17 130.116 42.45H134.626ZM138.576 42.38V46.81C138.576 47.01 138.516 47.1667 138.396 47.28C138.283 47.4 138.136 47.46 137.956 47.46H136.626V44H128.556V46.85C128.556 47.0033 128.506 47.1433 128.406 47.27C128.313 47.3967 128.166 47.46 127.966 47.46H126.606V42.45H126.916C127.15 42.45 127.38 42.4167 127.606 42.35C127.833 42.2767 128.05 42.1333 128.256 41.92C128.463 41.7067 128.66 41.4067 128.846 41.02C129.033 40.6267 129.2 40.11 129.346 39.47C129.5 38.83 129.633 38.0467 129.746 37.12C129.86 36.1933 129.95 35.0867 130.016 33.8H136.706V42.38H138.576ZM142.405 41.44C142.705 41.8267 143.032 42.1 143.385 42.26C143.745 42.4133 144.142 42.49 144.575 42.49C145.415 42.49 146.069 42.1833 146.535 41.57C147.009 40.9567 147.245 40.0433 147.245 38.83C147.245 38.2033 147.192 37.67 147.085 37.23C146.979 36.7833 146.825 36.42 146.625 36.14C146.425 35.86 146.182 35.6567 145.895 35.53C145.609 35.4033 145.285 35.34 144.925 35.34C144.379 35.34 143.905 35.46 143.505 35.7C143.112 35.9333 142.745 36.27 142.405 36.71V41.44ZM142.295 35.28C142.722 34.78 143.205 34.3767 143.745 34.07C144.292 33.7633 144.925 33.61 145.645 33.61C146.219 33.61 146.739 33.7267 147.205 33.96C147.672 34.1867 148.072 34.52 148.405 34.96C148.739 35.4 148.995 35.9467 149.175 36.6C149.362 37.2467 149.455 37.99 149.455 38.83C149.455 39.5833 149.352 40.2867 149.145 40.94C148.945 41.5867 148.655 42.15 148.275 42.63C147.895 43.1033 147.435 43.4767 146.895 43.75C146.355 44.0167 145.745 44.15 145.065 44.15C144.465 44.15 143.955 44.0533 143.535 43.86C143.122 43.6667 142.745 43.4 142.405 43.06V47.39H140.255V33.8H141.555C141.849 33.8 142.035 33.9367 142.115 34.21L142.295 35.28ZM160.321 33.8L154.701 46.9C154.628 47.0533 154.538 47.1733 154.431 47.26C154.331 47.3467 154.174 47.39 153.961 47.39H152.371L154.251 43.31L150.091 33.8H151.961C152.141 33.8 152.278 33.8433 152.371 33.93C152.471 34.01 152.544 34.1067 152.591 34.22L155.021 40.01C155.081 40.1767 155.134 40.3433 155.181 40.51C155.234 40.67 155.284 40.8367 155.331 41.01C155.384 40.8367 155.438 40.6667 155.491 40.5C155.544 40.3333 155.604 40.1667 155.671 40L158.001 34.22C158.048 34.1 158.124 34 158.231 33.92C158.344 33.84 158.468 33.8 158.601 33.8H160.321ZM161.003 34.88C161.389 34.5133 161.863 34.2167 162.423 33.99C162.983 33.7567 163.653 33.64 164.433 33.64C165.059 33.64 165.613 33.7167 166.093 33.87C166.573 34.0167 166.976 34.2167 167.303 34.47C167.629 34.7167 167.876 35.0033 168.043 35.33C168.216 35.6567 168.303 35.9967 168.303 36.35C168.303 36.55 168.273 36.7567 168.213 36.97C168.153 37.1767 168.053 37.38 167.913 37.58C167.779 37.78 167.599 37.9667 167.373 38.14C167.153 38.3133 166.879 38.4567 166.553 38.57C167.159 38.77 167.639 39.08 167.993 39.5C168.346 39.9133 168.523 40.43 168.523 41.05C168.523 41.5367 168.409 41.9733 168.183 42.36C167.963 42.74 167.666 43.0633 167.293 43.33C166.926 43.5967 166.499 43.8 166.013 43.94C165.533 44.08 165.033 44.15 164.513 44.15C164.199 44.15 163.873 44.12 163.533 44.06C163.199 44.0067 162.866 43.9167 162.533 43.79C162.206 43.6567 161.889 43.4867 161.583 43.28C161.276 43.0733 160.999 42.82 160.753 42.52L161.373 41.73C161.453 41.5967 161.586 41.53 161.773 41.53C161.906 41.53 162.043 41.58 162.183 41.68C162.323 41.78 162.486 41.89 162.673 42.01C162.866 42.13 163.096 42.24 163.363 42.34C163.636 42.44 163.973 42.49 164.373 42.49C164.706 42.49 165.003 42.45 165.263 42.37C165.523 42.29 165.743 42.1767 165.923 42.03C166.103 41.8833 166.239 41.7133 166.333 41.52C166.426 41.32 166.473 41.1033 166.473 40.87C166.473 40.4167 166.286 40.06 165.913 39.8C165.546 39.5333 164.966 39.4 164.173 39.4H163.023V37.98H164.173C164.866 37.98 165.403 37.8533 165.783 37.6C166.163 37.3467 166.353 37.0167 166.353 36.61C166.353 36.2433 166.186 35.9333 165.853 35.68C165.526 35.4267 165.033 35.3 164.373 35.3C163.999 35.3 163.679 35.34 163.413 35.42C163.153 35.4933 162.933 35.5767 162.753 35.67C162.573 35.7567 162.419 35.8367 162.293 35.91C162.173 35.9833 162.066 36.02 161.973 36.02C161.873 36.02 161.786 36 161.713 35.96C161.646 35.92 161.573 35.8367 161.493 35.71L161.003 34.88ZM177.297 37.75C177.297 37.39 177.244 37.0567 177.137 36.75C177.037 36.4367 176.887 36.1667 176.687 35.94C176.487 35.7067 176.237 35.5267 175.937 35.4C175.644 35.2667 175.304 35.2 174.917 35.2C174.137 35.2 173.524 35.4233 173.077 35.87C172.63 36.3167 172.347 36.9433 172.227 37.75H177.297ZM172.167 39.07C172.194 39.65 172.284 40.1533 172.437 40.58C172.59 41 172.794 41.35 173.047 41.63C173.307 41.91 173.614 42.12 173.967 42.26C174.327 42.3933 174.727 42.46 175.167 42.46C175.587 42.46 175.95 42.4133 176.257 42.32C176.564 42.22 176.83 42.1133 177.057 42C177.284 41.88 177.477 41.7733 177.637 41.68C177.797 41.58 177.944 41.53 178.077 41.53C178.25 41.53 178.384 41.5967 178.477 41.73L179.087 42.52C178.834 42.82 178.547 43.0733 178.227 43.28C177.907 43.4867 177.567 43.6567 177.207 43.79C176.847 43.9167 176.477 44.0067 176.097 44.06C175.717 44.12 175.347 44.15 174.987 44.15C174.28 44.15 173.624 44.0333 173.017 43.8C172.417 43.56 171.894 43.21 171.447 42.75C171.007 42.29 170.66 41.72 170.407 41.04C170.16 40.36 170.037 39.5767 170.037 38.69C170.037 37.9833 170.147 37.3233 170.367 36.71C170.594 36.0967 170.914 35.5633 171.327 35.11C171.747 34.6567 172.254 34.3 172.847 34.04C173.447 33.7733 174.124 33.64 174.877 33.64C175.504 33.64 176.084 33.7433 176.617 33.95C177.15 34.15 177.61 34.4467 177.997 34.84C178.384 35.2333 178.684 35.7167 178.897 36.29C179.117 36.8567 179.227 37.5033 179.227 38.23C179.227 38.5633 179.19 38.7867 179.117 38.9C179.044 39.0133 178.91 39.07 178.717 39.07H172.167ZM190.202 33.8V44H188.052V37.61C188.052 37.47 188.059 37.3167 188.072 37.15C188.085 36.9833 188.105 36.8133 188.132 36.64C188.065 36.7867 187.999 36.9233 187.932 37.05C187.872 37.17 187.805 37.28 187.732 37.38L183.302 43.47C183.222 43.5967 183.115 43.72 182.982 43.84C182.849 43.9533 182.699 44.01 182.532 44.01H181.232V33.8H183.382V40.19C183.382 40.33 183.372 40.4867 183.352 40.66C183.339 40.8333 183.319 41.0067 183.292 41.18C183.425 40.8733 183.562 40.62 183.702 40.42L188.132 34.34C188.212 34.2067 188.319 34.0833 188.452 33.97C188.585 33.8567 188.735 33.8 188.902 33.8H190.202ZM185.842 31.26C186.102 31.26 186.319 31.2333 186.492 31.18C186.672 31.12 186.815 31.0267 186.922 30.9C187.029 30.7667 187.105 30.5967 187.152 30.39C187.199 30.1767 187.222 29.9133 187.222 29.6H188.482C188.635 29.6 188.749 29.6667 188.822 29.8C188.895 29.9267 188.932 30.0667 188.932 30.22C188.932 30.56 188.859 30.8667 188.712 31.14C188.572 31.4067 188.369 31.6367 188.102 31.83C187.835 32.0167 187.509 32.1633 187.122 32.27C186.742 32.37 186.315 32.42 185.842 32.42C185.369 32.42 184.939 32.37 184.552 32.27C184.172 32.1633 183.849 32.0167 183.582 31.83C183.315 31.6367 183.109 31.4067 182.962 31.14C182.822 30.8667 182.752 30.56 182.752 30.22C182.752 30.0667 182.789 29.9267 182.862 29.8C182.935 29.6667 183.049 29.6 183.202 29.6H184.462C184.462 29.9133 184.485 30.1767 184.532 30.39C184.579 30.5967 184.655 30.7667 184.762 30.9C184.869 31.0267 185.009 31.12 185.182 31.18C185.362 31.2333 185.582 31.26 185.842 31.26Z" fill="black"/>
<rect x="202" y="20" width="34" height="32" rx="6" fill="#F76E50"/>
<path d="M210 36H228" stroke="white" stroke-width="3" stroke-linecap="round"/>
</svg>
