<svg width="4" height="18" viewBox="0 0 4 18" fill="none" xmlns="http://www.w3.org/2000/svg">
<path d="M0.863636 15.6932C0.863636 16.1136 1.0142 16.4744 1.31534 16.7756C1.61648 17.0767 1.97727 17.2273 2.39773 17.2273C2.81818 17.2273 3.17898 17.0767 3.48011 16.7756C3.78125 16.4744 3.93182 16.1136 3.93182 15.6932C3.93182 15.2727 3.78125 14.9119 3.48011 14.6108C3.17898 14.3097 2.81818 14.1591 2.39773 14.1591C2.11932 14.1591 1.86364 14.2301 1.63068 14.3722C1.39773 14.5085 1.21023 14.6932 1.06818 14.9261C0.931818 15.1534 0.863636 15.4091 0.863636 15.6932ZM0.863636 9.08381C0.863636 9.50426 1.0142 9.86506 1.31534 10.1662C1.61648 10.4673 1.97727 10.6179 2.39773 10.6179C2.81818 10.6179 3.17898 10.4673 3.48011 10.1662C3.78125 9.86506 3.93182 9.50426 3.93182 9.08381C3.93182 8.66335 3.78125 8.30256 3.48011 8.00142C3.17898 7.70028 2.81818 7.54972 2.39773 7.54972C2.11932 7.54972 1.86364 7.62074 1.63068 7.76278C1.39773 7.89915 1.21023 8.08381 1.06818 8.31676C0.931818 8.54403 0.863636 8.79972 0.863636 9.08381ZM0.863636 2.47443C0.863636 2.89489 1.0142 3.25568 1.31534 3.55682C1.61648 3.85795 1.97727 4.00852 2.39773 4.00852C2.81818 4.00852 3.17898 3.85795 3.48011 3.55682C3.78125 3.25568 3.93182 2.89489 3.93182 2.47443C3.93182 2.05398 3.78125 1.69318 3.48011 1.39205C3.17898 1.09091 2.81818 0.940341 2.39773 0.940341C2.11932 0.940341 1.86364 1.01136 1.63068 1.15341C1.39773 1.28977 1.21023 1.47443 1.06818 1.70739C0.931818 1.93466 0.863636 2.19034 0.863636 2.47443Z" fill="#3A3A3A"/>
</svg>
