<svg width="34" height="34" viewBox="0 0 34 34" fill="none" xmlns="http://www.w3.org/2000/svg">
<path d="M23.4401 5.43955L28.5177 10.4688M1 33L1.08518 32.4093C1.38662 30.3195 1.53735 29.2745 1.88019 28.2988C2.18441 27.4331 2.59999 26.6098 3.11669 25.8495C3.69898 24.9924 4.45258 24.246 5.95977 22.7532L26.8706 2.0416C28.2729 0.6528 30.5462 0.6528 31.9484 2.0416C33.3505 3.4304 33.3505 5.68209 31.9484 7.07089L10.6538 28.1624C9.28643 29.5168 8.60277 30.1939 7.82405 30.7324C7.13285 31.2103 6.38738 31.6063 5.60295 31.9121C4.71921 32.2567 3.7714 32.4461 1.87595 32.8249L1 33Z" stroke="#FF8B72" stroke-opacity="0.8" stroke-width="2" stroke-linecap="round" stroke-linejoin="round"/>
</svg>
