<svg width="30" height="22" viewBox="0 0 30 22" fill="none" xmlns="http://www.w3.org/2000/svg">
<path d="M9.74261 9.61238C12.1219 9.61238 14.0507 7.68444 14.0507 5.30619C14.0507 2.92795 12.1219 1 9.74261 1C7.36335 1 5.43457 2.92795 5.43457 5.30619C5.43457 7.68444 7.36335 9.61238 9.74261 9.61238Z" stroke="black" stroke-width="2"/>
<path d="M18.4444 21C18.4444 19.855 18.2187 18.7212 17.7802 17.6634C17.3416 16.6056 16.6988 15.6445 15.8886 14.8351C15.0783 14.0257 14.1164 13.3839 13.0579 12.9462C11.9993 12.5086 10.8649 12.2837 9.71934 12.2844C7.40683 12.2844 5.18903 13.2027 3.55384 14.8372C1.91864 16.4717 1 18.6885 1 21H18.4444Z" stroke="black" stroke-width="2"/>
<path d="M21.9617 11.4415C23.8785 11.4415 25.4323 9.88835 25.4323 7.97245C25.4323 6.05656 23.8785 4.50342 21.9617 4.50342C20.045 4.50342 18.4912 6.05656 18.4912 7.97245C18.4912 9.88835 20.045 11.4415 21.9617 11.4415Z" stroke="black" stroke-width="2"/>
<path d="M20.9691 21.0001H29.0001C29.0001 20.0769 28.8179 19.1629 28.464 18.3103C28.1101 17.4576 27.5913 16.6832 26.9375 16.0312C26.2837 15.3793 25.5076 14.8627 24.6538 14.511C23.7999 14.1593 22.885 13.9794 21.9615 13.9817C20.8114 13.9802 19.6785 14.2618 18.6631 14.8017" stroke="black" stroke-width="2"/>
</svg>
