<svg width="28" height="29" viewBox="0 0 28 29" fill="none" xmlns="http://www.w3.org/2000/svg">
<circle cx="14" cy="14.5" r="13" stroke="black" stroke-width="2"/>
<path d="M19 11.5C19 12.9143 18.4152 14.5841 17.4401 15.8961C16.4575 17.2181 15.2205 18 14 18C12.7795 18 11.5425 17.2181 10.5599 15.8961C9.58477 14.5841 9 12.9143 9 11.5C9 8.73858 11.2386 6.5 14 6.5C16.7614 6.5 19 8.73858 19 11.5Z" stroke="black" stroke-width="2"/>
<path d="M19.2415 23.1227C14.8464 18.6372 10.596 20.6737 7.89093 23.5315C6.88633 24.5928 7.66518 26.1728 9.12612 26.209C11.9026 26.2778 15.0084 26.1573 17.8253 26.0794C19.4095 26.0355 20.3506 24.2547 19.2415 23.1227Z" stroke="black" stroke-width="2"/>
</svg>
