<svg width="24" height="24" viewBox="0 0 24 24" fill="none" xmlns="http://www.w3.org/2000/svg">
<path d="M9.15024 0L8.55167 3.02813C7.54537 3.4011 6.6213 3.92392 5.81161 4.57734L2.85215 3.57422L0 8.42578L2.37043 10.4508C2.2793 11.0007 2.23211 11.5102 2.23211 12C2.23211 12.4905 2.28072 12.9992 2.37043 13.5492V13.5516L0 15.5766L2.85215 20.4258L5.80922 19.425C6.61899 20.0788 7.54515 20.5987 8.55167 20.9719L9.15024 24H14.8498L15.4483 20.9719C16.4553 20.5987 17.3783 20.0767 18.1884 19.4227L21.1479 20.4258L23.9976 15.5766L21.6296 13.5492C21.7207 12.9993 21.7679 12.4898 21.7679 12C21.7679 11.5109 21.7204 11.002 21.6296 10.4531V10.4508L24 8.42344L21.1479 3.57422L18.1908 4.575C17.381 3.92122 16.4548 3.40132 15.4483 3.02813L14.8498 0H9.15024ZM11.163 2.4H12.837L13.3116 4.8L14.5851 5.27344C15.3526 5.55776 16.0423 5.94811 16.6407 6.43125L17.6948 7.27969L20.0413 6.4875L20.8784 7.91016L19.004 9.51328L19.2186 10.8328V10.8352C19.2933 11.2851 19.3259 11.6625 19.3259 12C19.3259 12.3375 19.2933 12.7149 19.2186 13.1648L19.0016 14.4844L20.876 16.0875L20.0389 17.5125L17.6948 16.718L16.6383 17.5688C16.0399 18.0519 15.3526 18.4422 14.5851 18.7266H14.5827L13.3092 19.2L12.8347 21.6H11.163L10.6884 19.2L9.41494 18.7266C8.64735 18.4422 7.95772 18.0519 7.3593 17.5688L6.30525 16.7203L3.95866 17.5125L3.12162 16.0898L4.99841 14.4844L4.7814 13.1695V13.1672C4.70781 12.7153 4.67409 12.3368 4.67409 12C4.67409 11.6625 4.70674 11.2851 4.7814 10.8352L4.99841 9.51562L3.12162 7.9125L3.95866 6.4875L6.30525 7.28203L7.3593 6.43125C7.95772 5.94811 8.64735 5.55776 9.41494 5.27344L10.6884 4.8L11.163 2.4ZM12 7.2C9.31808 7.2 7.11606 9.36417 7.11606 12C7.11606 14.6358 9.31808 16.8 12 16.8C14.6819 16.8 16.8839 14.6358 16.8839 12C16.8839 9.36417 14.6819 7.2 12 7.2ZM12 9.6C13.3571 9.6 14.442 10.6662 14.442 12C14.442 13.3338 13.3571 14.4 12 14.4C10.6429 14.4 9.55803 13.3338 9.55803 12C9.55803 10.6662 10.6429 9.6 12 9.6Z" fill="black"/>
</svg>
