<svg width="280" height="411" viewBox="0 0 280 411" fill="none" xmlns="http://www.w3.org/2000/svg">
<rect x="3" y="3" width="274" height="405" rx="17" stroke="#988FFF" stroke-opacity="0.6" stroke-width="6"/>
<path d="M166.884 181.758L147.075 162.115C137.517 152.636 132.737 147.896 127.253 146.164C122.43 144.64 117.245 144.696 112.456 146.324C107.01 148.175 102.334 153.017 92.9831 162.7L45.5236 209.576M166.884 181.758L170.938 177.738C180.508 168.248 185.292 163.502 190.783 161.77C195.612 160.246 200.8 160.307 205.593 161.941C211.041 163.798 215.716 168.653 225.065 178.36L235 188.359M166.884 181.758L214.516 229.483M45.5236 209.576C45.892 212.569 46.5195 214.934 47.5886 217.033C49.8655 221.501 53.4988 225.135 57.9677 227.411C63.0481 230 69.6987 230 83 230H197C204.77 230 210.271 230 214.516 229.483M45.5236 209.576C45 205.325 45 199.808 45 192V78C45 64.6988 45 58.0481 47.5886 52.9677C49.8655 48.4988 53.4988 44.8655 57.9677 42.5886C63.0481 40 69.6987 40 83 40H197C210.301 40 216.952 40 222.033 42.5886C226.501 44.8655 230.135 48.4988 232.411 52.9677C235 58.0481 235 64.6988 235 78V188.359M235 188.359V192C235 205.301 235 211.952 232.411 217.033C230.135 221.501 226.501 225.135 222.033 227.411C219.92 228.488 217.535 229.116 214.516 229.483M199.375 99.3737C199.375 112.491 188.742 123.124 175.625 123.124C162.508 123.124 151.875 112.491 151.875 99.3737C151.875 86.2569 162.508 75.6237 175.625 75.6237C188.742 75.6237 199.375 86.2569 199.375 99.3737Z" stroke="#988FFF" stroke-opacity="0.6" stroke-width="8" stroke-linecap="round" stroke-linejoin="round"/>
<rect x="45" y="256" width="172" height="20" fill="#988FFF" fill-opacity="0.6"/>
<rect x="45" y="284" width="178" height="20" fill="#988FFF" fill-opacity="0.6"/>
<line x1="40" y1="314.5" x2="240" y2="314.5" stroke="#988FFF" stroke-opacity="0.6" stroke-width="3"/>
<rect x="44.5" y="328" width="191" height="43" rx="8" fill="#988FFF" fill-opacity="0.6"/>
</svg>
