<svg width="172" height="36" viewBox="0 0 172 36" fill="none" xmlns="http://www.w3.org/2000/svg">
<g filter="url(#filter0_i_167_150)">
<path d="M3.7582 30.5514C1.75383 30.5514 1.87908 29.5353 1.56592 27.757C0.552962 21.3483 0.371947 14.3809 1.76441 8.04377C2.10954 6.47307 2.7933 5.40234 4.38461 5.40234C7.65439 5.40234 8.14272 6.92653 8.14279 8.70475L8.1428 18.1517C8.1428 18.3783 8.49644 18.4426 8.59546 18.2388C9.3984 16.5862 10.272 16.6203 11.5878 16.8337C12.8406 17.037 13.3625 18.5273 13.4669 19.3741C13.6548 20.8982 13.7801 23.3369 16.2855 22.9305C19.1042 21.9144 18.791 19.6281 18.791 18.1039C18.791 17.5034 18.9789 15.6652 19.7305 13.0232C21.6096 7.68856 26.9337 10.2289 27.2469 13.0232C27.4975 15.2587 27.1425 19.7127 26.9337 21.6603C26.8293 22.9304 26.9337 26.4869 24.1151 29.0272C19.8558 31.8723 15.6592 30.2126 14.0933 29.0272C13.5713 28.6038 12.3394 27.2998 11.5878 25.4707C10.8362 23.6417 9.39552 24.7086 8.76916 25.4707L7.20325 27.757C6.57691 28.7732 5.76256 30.5514 3.7582 30.5514Z" fill="#796DFF"/>
</g>
<g filter="url(#filter1_i_167_150)">
<path d="M34.2332 5.40234C32.1109 5.403 31.3899 7.59458 31.0161 9.15301L31.0126 9.1676C30.6653 10.615 26.5155 27.9123 27.4773 29.6112C28.2494 30.9751 31.2305 30.6341 32.6246 30.2932C34.5549 29.7249 38.8015 28.0427 40.3457 25.8605C42.2759 23.1328 39.3806 22.7918 38.7371 22.7918C38.5721 22.7918 38.3859 22.8142 38.1568 22.8649C35.6868 23.4106 32.24 24.2152 32.3335 21.6874C32.3574 21.0413 32.511 20.4252 32.6246 20.064C32.8688 19.2877 34.7694 12.9037 35.8417 9.83495C36.3612 8.34834 35.8417 5.40184 34.2332 5.40234Z" fill="#796DFF"/>
</g>
<path d="M53.7 28.28C52.8227 28.28 52.1133 28 51.572 27.44C51.0493 26.88 50.676 26.0027 50.452 24.808L47.484 9.576C47.4467 9.38933 47.428 9.24933 47.428 9.156C47.428 8.82 47.5307 8.568 47.736 8.4C47.96 8.21333 48.268 8.12 48.66 8.12C49.108 8.12 49.4347 8.22267 49.64 8.428C49.864 8.61467 50.0133 8.904 50.088 9.296L52.944 24.948C53.0373 25.396 53.14 25.704 53.252 25.872C53.364 26.0213 53.532 26.096 53.756 26.096C53.9987 26.096 54.176 26.012 54.288 25.844C54.4187 25.6573 54.512 25.368 54.568 24.976L56.64 10.892C56.7707 9.996 57.0693 9.31467 57.536 8.848C58.0027 8.36267 58.6187 8.12 59.384 8.12C60.1493 8.12 60.756 8.36267 61.204 8.848C61.6707 9.33333 61.9693 10.0147 62.1 10.892L64.144 24.976C64.2 25.368 64.2933 25.6573 64.424 25.844C64.5547 26.012 64.732 26.096 64.956 26.096C65.18 26.096 65.348 26.012 65.46 25.844C65.5907 25.676 65.6933 25.3773 65.768 24.948L68.652 9.296C68.7267 8.904 68.876 8.61467 69.1 8.428C69.324 8.22267 69.6507 8.12 70.08 8.12C70.8827 8.12 71.284 8.46533 71.284 9.156C71.284 9.24933 71.2653 9.38933 71.228 9.576L68.288 24.808C68.0453 25.9653 67.6627 26.8333 67.14 27.412C66.636 27.9907 65.9267 28.28 65.012 28.28C64.1347 28.28 63.444 28 62.94 27.44C62.4547 26.88 62.1187 26.012 61.932 24.836L59.944 11.228C59.888 10.892 59.8133 10.6587 59.72 10.528C59.6453 10.3787 59.5333 10.304 59.384 10.304C59.216 10.304 59.0853 10.3787 58.992 10.528C58.9173 10.6587 58.852 10.892 58.796 11.228L56.78 24.836C56.612 26.012 56.276 26.88 55.772 27.44C55.268 28 54.5773 28.28 53.7 28.28ZM76.2422 11.452C75.7569 11.452 75.3462 11.3027 75.0102 11.004C74.6742 10.6867 74.5062 10.2947 74.5062 9.828C74.5062 9.36133 74.6742 8.96933 75.0102 8.652C75.3462 8.33467 75.7569 8.176 76.2422 8.176C76.7649 8.176 77.1942 8.33467 77.5302 8.652C77.8849 8.96933 78.0622 9.36133 78.0622 9.828C78.0622 10.276 77.8849 10.6587 77.5302 10.976C77.1942 11.2933 76.7649 11.452 76.2422 11.452ZM76.2702 28.28C75.8595 28.28 75.5422 28.168 75.3182 27.944C75.0942 27.7013 74.9822 27.3747 74.9822 26.964V15.316C74.9822 14.9053 75.0942 14.588 75.3182 14.364C75.5422 14.1213 75.8595 14 76.2702 14C76.6809 14 76.9982 14.1213 77.2222 14.364C77.4462 14.588 77.5582 14.9053 77.5582 15.316V26.964C77.5582 27.3747 77.4462 27.7013 77.2222 27.944C76.9982 28.168 76.6809 28.28 76.2702 28.28ZM87.8042 28.28C86.3669 28.28 85.0882 28.0373 83.9682 27.552C82.8482 27.048 81.9616 26.376 81.3082 25.536C81.1216 25.2933 81.0282 25.0507 81.0282 24.808C81.0282 24.3973 81.2242 24.0893 81.6162 23.884C81.7842 23.7907 81.9616 23.744 82.1482 23.744C82.4656 23.744 82.7922 23.912 83.1282 24.248C83.7442 24.9013 84.4256 25.3773 85.1722 25.676C85.9189 25.9747 86.7776 26.124 87.7482 26.124C88.6442 26.124 89.3722 25.984 89.9322 25.704C90.5109 25.4053 90.8002 25.004 90.8002 24.5C90.8002 24.1267 90.6882 23.8187 90.4642 23.576C90.2589 23.3333 89.8949 23.1 89.3722 22.876C88.8496 22.652 88.0282 22.3533 86.9082 21.98C85.0229 21.3827 83.6882 20.7667 82.9042 20.132C82.1389 19.4973 81.7562 18.6667 81.7562 17.64C81.7562 16.5387 82.2322 15.6613 83.1842 15.008C84.1549 14.336 85.4616 14 87.1042 14C88.3176 14 89.4376 14.2053 90.4642 14.616C91.5096 15.008 92.2842 15.5493 92.7882 16.24C92.9562 16.464 93.0402 16.6973 93.0402 16.94C93.0402 17.2573 92.8722 17.528 92.5362 17.752C92.2936 17.9013 92.0509 17.976 91.8082 17.976C91.4349 17.976 91.0802 17.808 90.7442 17.472C90.2962 17.024 89.7736 16.6973 89.1762 16.492C88.5976 16.268 87.8976 16.156 87.0762 16.156C86.1989 16.156 85.5269 16.2867 85.0602 16.548C84.6122 16.8093 84.3882 17.1827 84.3882 17.668C84.3882 18.0413 84.4909 18.34 84.6962 18.564C84.9016 18.788 85.2562 19.0027 85.7602 19.208C86.2642 19.4133 87.1042 19.7027 88.2802 20.076C89.5869 20.4867 90.6042 20.8973 91.3322 21.308C92.0789 21.7187 92.6109 22.176 92.9282 22.68C93.2456 23.184 93.4042 23.7907 93.4042 24.5C93.4042 25.6387 92.8909 26.5533 91.8642 27.244C90.8562 27.9347 89.5029 28.28 87.8042 28.28ZM97.6138 28.28C97.2032 28.28 96.8858 28.168 96.6618 27.944C96.4565 27.7013 96.3538 27.3747 96.3538 26.964V8.064C96.3538 7.63467 96.4565 7.308 96.6618 7.084C96.8858 6.86 97.2032 6.748 97.6138 6.748C98.0245 6.748 98.3418 6.86933 98.5658 7.112C98.8085 7.336 98.9298 7.65333 98.9298 8.064V16.688C100.33 14.896 102.187 14 104.502 14C106.294 14 107.675 14.5227 108.646 15.568C109.635 16.5947 110.13 18.0507 110.13 19.936V26.964C110.13 27.3747 110.009 27.7013 109.766 27.944C109.542 28.168 109.234 28.28 108.842 28.28C108.431 28.28 108.114 28.168 107.89 27.944C107.666 27.7013 107.554 27.3747 107.554 26.964V19.936C107.554 18.6853 107.255 17.7427 106.658 17.108C106.079 16.4733 105.211 16.156 104.054 16.156C102.486 16.156 101.235 16.6227 100.302 17.556C99.3872 18.4707 98.9298 19.712 98.9298 21.28V26.964C98.9298 27.3747 98.8085 27.7013 98.5658 27.944C98.3418 28.168 98.0245 28.28 97.6138 28.28ZM125.191 28C123.94 28 122.969 27.6733 122.279 27.02C121.607 26.3667 121.271 25.4613 121.271 24.304V9.436C121.271 9.02533 121.383 8.708 121.607 8.484C121.849 8.24133 122.176 8.12 122.587 8.12C122.997 8.12 123.324 8.24133 123.567 8.484C123.809 8.708 123.931 9.02533 123.931 9.436V24.332C123.931 24.7987 124.052 25.172 124.295 25.452C124.537 25.732 124.873 25.872 125.303 25.872H134.515C135.392 25.872 135.831 26.2267 135.831 26.936C135.831 27.272 135.709 27.5333 135.467 27.72C135.243 27.9067 134.925 28 134.515 28H125.191ZM140.391 11.452C139.905 11.452 139.495 11.3027 139.159 11.004C138.823 10.6867 138.655 10.2947 138.655 9.828C138.655 9.36133 138.823 8.96933 139.159 8.652C139.495 8.33467 139.905 8.176 140.391 8.176C140.913 8.176 141.343 8.33467 141.679 8.652C142.033 8.96933 142.211 9.36133 142.211 9.828C142.211 10.276 142.033 10.6587 141.679 10.976C141.343 11.2933 140.913 11.452 140.391 11.452ZM140.419 28.28C140.008 28.28 139.691 28.168 139.467 27.944C139.243 27.7013 139.131 27.3747 139.131 26.964V15.316C139.131 14.9053 139.243 14.588 139.467 14.364C139.691 14.1213 140.008 14 140.419 14C140.829 14 141.147 14.1213 141.371 14.364C141.595 14.588 141.707 14.9053 141.707 15.316V26.964C141.707 27.3747 141.595 27.7013 141.371 27.944C141.147 28.168 140.829 28.28 140.419 28.28ZM151.953 28.28C150.515 28.28 149.237 28.0373 148.117 27.552C146.997 27.048 146.11 26.376 145.457 25.536C145.27 25.2933 145.177 25.0507 145.177 24.808C145.177 24.3973 145.373 24.0893 145.765 23.884C145.933 23.7907 146.11 23.744 146.297 23.744C146.614 23.744 146.941 23.912 147.277 24.248C147.893 24.9013 148.574 25.3773 149.321 25.676C150.067 25.9747 150.926 26.124 151.897 26.124C152.793 26.124 153.521 25.984 154.081 25.704C154.659 25.4053 154.949 25.004 154.949 24.5C154.949 24.1267 154.837 23.8187 154.613 23.576C154.407 23.3333 154.043 23.1 153.521 22.876C152.998 22.652 152.177 22.3533 151.057 21.98C149.171 21.3827 147.837 20.7667 147.053 20.132C146.287 19.4973 145.905 18.6667 145.905 17.64C145.905 16.5387 146.381 15.6613 147.333 15.008C148.303 14.336 149.61 14 151.253 14C152.466 14 153.586 14.2053 154.613 14.616C155.658 15.008 156.433 15.5493 156.937 16.24C157.105 16.464 157.189 16.6973 157.189 16.94C157.189 17.2573 157.021 17.528 156.685 17.752C156.442 17.9013 156.199 17.976 155.957 17.976C155.583 17.976 155.229 17.808 154.893 17.472C154.445 17.024 153.922 16.6973 153.325 16.492C152.746 16.268 152.046 16.156 151.225 16.156C150.347 16.156 149.675 16.2867 149.209 16.548C148.761 16.8093 148.537 17.1827 148.537 17.668C148.537 18.0413 148.639 18.34 148.845 18.564C149.05 18.788 149.405 19.0027 149.909 19.208C150.413 19.4133 151.253 19.7027 152.429 20.076C153.735 20.4867 154.753 20.8973 155.481 21.308C156.227 21.7187 156.759 22.176 157.077 22.68C157.394 23.184 157.553 23.7907 157.553 24.5C157.553 25.6387 157.039 26.5533 156.013 27.244C155.005 27.9347 153.651 28.28 151.953 28.28ZM170.526 24.948C170.769 25.1533 170.89 25.3867 170.89 25.648C170.89 25.872 170.788 26.1427 170.582 26.46C170.19 27.02 169.64 27.468 168.93 27.804C168.221 28.1213 167.465 28.28 166.662 28.28C165.337 28.28 164.292 27.9067 163.526 27.16C162.78 26.3947 162.406 25.3493 162.406 24.024V16.38H161.006C160.577 16.38 160.241 16.2867 159.998 16.1C159.774 15.9133 159.662 15.652 159.662 15.316C159.662 14.9987 159.774 14.7467 159.998 14.56C160.241 14.3733 160.577 14.28 161.006 14.28H162.406V9.688C162.406 9.27733 162.518 8.96 162.742 8.736C162.985 8.49333 163.312 8.372 163.722 8.372C164.133 8.372 164.441 8.484 164.646 8.708C164.87 8.932 164.982 9.25867 164.982 9.688V14.28H168.426C168.856 14.28 169.182 14.3733 169.406 14.56C169.649 14.728 169.77 14.98 169.77 15.316C169.77 15.652 169.649 15.9133 169.406 16.1C169.182 16.2867 168.856 16.38 168.426 16.38H164.982V24.248C164.982 24.8453 165.141 25.312 165.458 25.648C165.776 25.9653 166.224 26.124 166.802 26.124C167.213 26.124 167.577 26.0587 167.894 25.928C168.212 25.7787 168.529 25.536 168.846 25.2C169.201 24.8453 169.528 24.668 169.826 24.668C170.088 24.668 170.321 24.7613 170.526 24.948Z" fill="black"/>
<defs>
<filter id="filter0_i_167_150" x="0.762695" y="5.40234" width="28.5703" height="27.1953" filterUnits="userSpaceOnUse" color-interpolation-filters="sRGB">
<feFlood flood-opacity="0" result="BackgroundImageFix"/>
<feBlend mode="normal" in="SourceGraphic" in2="BackgroundImageFix" result="shape"/>
<feColorMatrix in="SourceAlpha" type="matrix" values="0 0 0 0 0 0 0 0 0 0 0 0 0 0 0 0 0 0 127 0" result="hardAlpha"/>
<feOffset dx="2" dy="2"/>
<feGaussianBlur stdDeviation="3.5"/>
<feComposite in2="hardAlpha" operator="arithmetic" k2="-1" k3="1"/>
<feColorMatrix type="matrix" values="0 0 0 0 0.314858 0 0 0 0 0 0 0 0 0 0.170023 0 0 0 0.25 0"/>
<feBlend mode="normal" in2="shape" result="effect1_innerShadow_167_150"/>
</filter>
<filter id="filter1_i_167_150" x="27.333" y="5.40234" width="15.667" height="27.1953" filterUnits="userSpaceOnUse" color-interpolation-filters="sRGB">
<feFlood flood-opacity="0" result="BackgroundImageFix"/>
<feBlend mode="normal" in="SourceGraphic" in2="BackgroundImageFix" result="shape"/>
<feColorMatrix in="SourceAlpha" type="matrix" values="0 0 0 0 0 0 0 0 0 0 0 0 0 0 0 0 0 0 127 0" result="hardAlpha"/>
<feOffset dx="2" dy="2"/>
<feGaussianBlur stdDeviation="3.5"/>
<feComposite in2="hardAlpha" operator="arithmetic" k2="-1" k3="1"/>
<feColorMatrix type="matrix" values="0 0 0 0 0.314858 0 0 0 0 0 0 0 0 0 0.170023 0 0 0 0.25 0"/>
<feBlend mode="normal" in2="shape" result="effect1_innerShadow_167_150"/>
</filter>
</defs>
</svg>
