<svg width="38" height="38" viewBox="0 0 38 38" fill="none" xmlns="http://www.w3.org/2000/svg">
<rect width="38" height="38" rx="19" fill="#988FFF"/>
<path d="M22.6226 12.4972L25.4787 15.3262M10 28L10.0479 27.6677C10.2175 26.4922 10.3023 25.9044 10.4951 25.3556C10.6662 24.8686 10.9 24.4055 11.1906 23.9778C11.5182 23.4957 11.9421 23.0758 12.7899 22.2362L24.5522 10.5859C25.341 9.8047 26.6197 9.8047 27.4085 10.5859C28.1972 11.3671 28.1972 12.6337 27.4085 13.4149L15.4302 25.2789C14.6611 26.0407 14.2766 26.4216 13.8385 26.7245C13.4497 26.9933 13.0304 27.216 12.5892 27.3881C12.0921 27.5819 11.5589 27.6884 10.4927 27.9015L10 28Z" stroke="white" stroke-width="2" stroke-linecap="round" stroke-linejoin="round"/>
</svg>
